<svg width="20" height="20" viewBox="0 0 20 20" fill="none" xmlns="http://www.w3.org/2000/svg">
<g clip-path="url(#clip0_1_254)">
<path d="M15 1.66667C16.8383 1.66667 18.3333 3.16167 18.3333 5V15C18.3333 16.8383 16.8383 18.3333 15 18.3333H5C3.16167 18.3333 1.66667 16.8383 1.66667 15V5C1.66667 3.16167 3.16167 1.66667 5 1.66667H15ZM15 0H5C3.67392 0 2.40215 0.526784 1.46447 1.46447C0.526784 2.40215 0 3.67392 0 5L0 15C0 16.3261 0.526784 17.5979 1.46447 18.5355C2.40215 19.4732 3.67392 20 5 20H15C16.3261 20 17.5979 19.4732 18.5355 18.5355C19.4732 17.5979 20 16.3261 20 15V5C20 3.67392 19.4732 2.40215 18.5355 1.46447C17.5979 0.526784 16.3261 0 15 0Z" fill="white" stroke="#4D0790" stroke-width="0.2"/>
<path d="M9.99996 15C9.77895 15 9.56698 14.9122 9.4107 14.7559C9.25442 14.5996 9.16663 14.3877 9.16663 14.1667V5.83333C9.16663 5.61232 9.25442 5.40036 9.4107 5.24408C9.56698 5.0878 9.77895 5 9.99996 5C10.221 5 10.4329 5.0878 10.5892 5.24408C10.7455 5.40036 10.8333 5.61232 10.8333 5.83333V14.1667C10.8333 14.3877 10.7455 14.5996 10.5892 14.7559C10.4329 14.9122 10.221 15 9.99996 15Z" fill="white" stroke="#4D0790" stroke-width="0.2"/>
<path d="M5 10C5 9.77899 5.0878 9.56703 5.24408 9.41075C5.40036 9.25447 5.61232 9.16667 5.83333 9.16667H14.1667C14.3877 9.16667 14.5996 9.25447 14.7559 9.41075C14.9122 9.56703 15 9.77899 15 10C15 10.221 14.9122 10.433 14.7559 10.5893C14.5996 10.7455 14.3877 10.8333 14.1667 10.8333H5.83333C5.61232 10.8333 5.40036 10.7455 5.24408 10.5893C5.0878 10.433 5 10.221 5 10Z" fill="white"/>
</g>
<defs>
<clipPath id="clip0_1_254">
<rect width="20" height="20" fill="white"/>
</clipPath>
</defs>
</svg>
