<svg width="33" height="16" viewBox="0 0 33 16" fill="none" xmlns="http://www.w3.org/2000/svg">
<path d="M0.152 12V0.544H3.656C5.40533 0.544 6.808 1.072 7.864 2.128C8.93067 3.184 9.464 4.56533 9.464 6.272C9.464 7.98933 8.93067 9.376 7.864 10.432C6.808 11.4773 5.40533 12 3.656 12H0.152ZM1.624 1.952V10.592H3.656C4.98933 10.592 6.04 10.2133 6.808 9.456C7.576 8.688 7.96 7.62667 7.96 6.272C7.96 4.928 7.576 3.872 6.808 3.104C6.04 2.336 4.98933 1.952 3.656 1.952H1.624ZM12.0305 9.6C12.0305 9.984 12.1905 10.304 12.5105 10.56C12.8412 10.816 13.2252 10.944 13.6625 10.944C14.2812 10.944 14.8305 10.7147 15.3105 10.256C15.8012 9.79733 16.0465 9.25867 16.0465 8.64C15.5878 8.27733 14.9478 8.096 14.1265 8.096C13.5292 8.096 13.0278 8.24 12.6225 8.528C12.2278 8.816 12.0305 9.17333 12.0305 9.6ZM13.9345 3.904C15.0225 3.904 15.8812 4.19733 16.5105 4.784C17.1398 5.36 17.4545 6.15467 17.4545 7.168V12H16.0465V10.912H15.9825C15.3745 11.808 14.5638 12.256 13.5505 12.256C12.6865 12.256 11.9612 12 11.3745 11.488C10.7985 10.976 10.5105 10.336 10.5105 9.568C10.5105 8.75733 10.8145 8.112 11.4225 7.632C12.0412 7.152 12.8625 6.912 13.8865 6.912C14.7612 6.912 15.4812 7.072 16.0465 7.392V7.056C16.0465 6.544 15.8438 6.112 15.4385 5.76C15.0332 5.39733 14.5585 5.216 14.0145 5.216C13.1932 5.216 12.5425 5.56267 12.0625 6.256L10.7665 5.44C11.4812 4.416 12.5372 3.904 13.9345 3.904ZM25.9665 4.16L21.0545 15.456H19.5345L21.3585 11.504L18.1265 4.16H19.7265L22.0625 9.792H22.0945L24.3665 4.16H25.9665ZM32.771 9.824C32.771 10.5067 32.4723 11.0827 31.875 11.552C31.2777 12.0213 30.5257 12.256 29.619 12.256C28.8297 12.256 28.1363 12.0533 27.539 11.648C26.9417 11.232 26.515 10.688 26.259 10.016L27.571 9.456C27.763 9.92533 28.0403 10.2933 28.403 10.56C28.7763 10.816 29.1817 10.944 29.619 10.944C30.0883 10.944 30.4777 10.8427 30.787 10.64C31.107 10.4373 31.267 10.1973 31.267 9.92C31.267 9.41867 30.883 9.05067 30.115 8.816L28.771 8.48C27.2457 8.096 26.483 7.36 26.483 6.272C26.483 5.55733 26.771 4.98667 27.347 4.56C27.9337 4.12267 28.6803 3.904 29.587 3.904C30.2803 3.904 30.9043 4.06933 31.459 4.4C32.0243 4.73067 32.419 5.17333 32.643 5.728L31.331 6.272C31.1817 5.94133 30.9363 5.68533 30.595 5.504C30.2643 5.312 29.891 5.216 29.475 5.216C29.091 5.216 28.7443 5.312 28.435 5.504C28.1363 5.696 27.987 5.93067 27.987 6.208C27.987 6.656 28.4083 6.976 29.251 7.168L30.435 7.472C31.9923 7.856 32.771 8.64 32.771 9.824Z" fill="#4D0790"/>
</svg>
